<?xml version="1.0" encoding="UTF-8"?>
<svg width="512" height="512" viewBox="0 0 512 512" fill="none" xmlns="http://www.w3.org/2000/svg">
  <rect width="512" height="512" rx="256" fill="#007BFF"/>
  <path d="M256 128C179.2 128 128 179.2 128 256C128 332.8 179.2 384 256 384C332.8 384 384 332.8 384 256C384 179.2 332.8 128 256 128ZM256 352C197.12 352 160 314.88 160 256C160 197.12 197.12 160 256 160C314.88 160 352 197.12 352 256C352 314.88 314.88 352 256 352Z" fill="white"/>
  <path d="M256 192C222.72 192 192 222.72 192 256C192 289.28 222.72 320 256 320C289.28 320 320 289.28 320 256C320 222.72 289.28 192 256 192Z" fill="white"/>
</svg> 